<?xml version="1.0" encoding="utf-8"?>
<!-- Generator: Adobe Illustrator 19.2.1, SVG Export Plug-In . SVG Version: 6.00 Build 0)  -->
<svg version="1.1" id="Calque_1" xmlns="http://www.w3.org/2000/svg" xmlns:xlink="http://www.w3.org/1999/xlink" x="0px" y="0px"
	 viewBox="0 0 75 75" style="enable-background:new 0 0 75 75;" xml:space="preserve">
<style type="text/css">
	.st0{fill:#E57F78;}
	.st1{clip-path:url(#SVGID_2_);}
	.st2{fill-rule:evenodd;clip-rule:evenodd;fill:#FDDDB8;}
	.st3{fill-rule:evenodd;clip-rule:evenodd;fill:#F6F6F6;}
	.st4{fill-rule:evenodd;clip-rule:evenodd;fill:#E8C6A1;}
	.st5{fill-rule:evenodd;clip-rule:evenodd;fill:#343434;}
	.st6{fill-rule:evenodd;clip-rule:evenodd;fill:#2A455C;}
	.st7{fill-rule:evenodd;clip-rule:evenodd;fill:#2789A4;}
	.st8{fill-rule:evenodd;clip-rule:evenodd;fill:#FFFFFF;}
</style>
<circle class="st0" cx="37.9" cy="37.5" r="36.5"/>
<g>
	<defs>
		<circle id="SVGID_1_" cx="37.9" cy="37.5" r="36.5"/>
	</defs>
	<clipPath id="SVGID_2_">
		<use xlink:href="#SVGID_1_"  style="overflow:visible;"/>
	</clipPath>
	<g class="st1">
		<g>
			<g>
				<path class="st2" d="M31.7,50.7c-13.8,6-17,9.1-18.6,10.5c-2.5,2.2-3.9,10.5-5.4,17.6L37.9,79h29.9c-1.5-7-2.9-15.4-5.4-17.6
					c-1.6-1.4-4.4-4.6-18.2-10.6L31.7,50.7z"/>
				<path class="st3" d="M23.8,54.4c-5,1.8-10.1,5.2-11.7,7C9.6,63.6,8.2,71.9,6.7,79h31.2h31.2c-1.5-7-2.9-15.4-5.4-17.6
					c-1-0.9-5.4-4-11.5-7C49.8,56.7,27.1,56.9,23.8,54.4z"/>
				<polygon class="st3" points="24.4,54.2 28.9,63.8 38.6,78.4 48,63.8 49.2,52.7 44.6,49.7 32.3,49.7 				"/>
				<path class="st2" d="M44.6,38.7v12.9c-3.7,4.5-9.7,4.4-13.4,0V38.7C31.2,30.4,44.6,30.4,44.6,38.7z"/>
				<path class="st4" d="M44.6,38.7v10.2c-2.5,1.8-5,2.9-6.7,2.9c-1.7,0-4.2-1-6.7-2.9V38.7C31.2,30.4,44.6,30.4,44.6,38.7z"/>
				<path class="st2" d="M38.2,48.9c5.1,0,9.8-5.8,12.2-12.9c0.1,0.1,0.3,0.2,0.5,0.3c1,0.2,2.2-1.7,2.6-4.2
					c0.4-2.5-0.1-4.7-1.1-4.8c-0.1,0-0.1,0-0.2,0c0.5-8.8-3.2-16.9-14-16.9c-10.9,0-14.5,8.1-14,16.9c-0.1,0-0.2,0-0.3,0
					c-1,0.2-1.5,2.3-1.1,4.8c0.4,2.5,1.6,4.4,2.6,4.2c0.2,0,0.4-0.2,0.6-0.4C28.4,43.1,33.1,48.9,38.2,48.9z"/>
				<path class="st5" d="M26.6,25.6c-1.2,1.5-1.9,2.6-2.2,7.2c-1-5.8-2.5-13.9,1.3-19.2c2.6-3.6,15.8-7.8,21.2-1.5
					c9.1,0.1,4.8,16.4,4.2,19.6c-0.3-7.4-4.3-6.6-6.3-12C42.1,21.7,36.6,25.2,26.6,25.6z"/>
				<g>
					<path class="st6" d="M19.4,79h1.1c0-4.7,0-8.2,0-8.2S20,74.4,19.4,79z"/>
					<path class="st6" d="M56.4,79h-1.1c0-4.7,0-8.2,0-8.2S55.8,74.4,56.4,79z"/>
				</g>
			</g>
			<polygon class="st7" points="36.2,58.8 39.5,58.8 41.2,75.3 37.7,77.7 34.6,75.3 			"/>
			<path class="st7" d="M36.2,55.3h3.3c0.7,1.5,0.7,2.9,0,4.2h-3.3C35.6,58.2,35.5,56.9,36.2,55.3z"/>
			<polygon class="st7" points="15.8,57.7 18.1,79 58,79 59.2,57.7 49.1,52.4 38.3,70.6 26.5,52.7 			"/>
			<polygon class="st8" points="31.2,50.4 37.6,54.9 33.9,62.6 28.4,52.3 			"/>
			<polygon class="st8" points="44.6,49.7 37.9,55 42,61.9 47.5,51.6 			"/>
			<rect x="46.1" y="65.5" class="st3" width="8.6" height="4.1"/>
		</g>
	</g>
</g>
</svg>
